<svg id="visual" viewBox="0 0 900 600" width="900" height="600" xmlns="http://www.w3.org/2000/svg" xmlns:xlink="http://www.w3.org/1999/xlink" version="1.1"><g><g transform="translate(160 373)"><path d="M92.1 -30.8C104.5 8.3 89.5 55.4 57.6 78.4C25.6 101.4 -23.2 100.3 -58.2 75.9C-93.1 51.5 -114.2 3.8 -102.2 -34.7C-90.1 -73.2 -45.1 -102.5 -2.6 -101.6C39.9 -100.8 79.7 -69.8 92.1 -30.8Z" stroke="#F7760E" fill="none" stroke-width="20"></path></g><g transform="translate(502 424)"><path d="M52.9 -18.3C59.5 3.1 49.5 28.8 30.7 42.6C11.8 56.4 -16 58.4 -32.7 46C-49.3 33.7 -54.8 7 -47.5 -15.4C-40.2 -37.8 -20.1 -56 1.5 -56.5C23.1 -57 46.3 -39.8 52.9 -18.3Z" stroke="#F7760E" fill="none" stroke-width="20"></path></g><g transform="translate(553 76)"><path d="M50.8 -17.8C56.4 0.6 44.9 23.3 27 36C9.2 48.7 -15.1 51.4 -32.2 39.9C-49.4 28.5 -59.5 2.9 -53 -16.9C-46.4 -36.6 -23.2 -50.7 -0.3 -50.6C22.6 -50.5 45.3 -36.3 50.8 -17.8Z" stroke="#F7760E" fill="none" stroke-width="20"></path></g></g></svg>