<svg id="visual" viewBox="0 0 900 600" width="900" height="600" xmlns="http://www.w3.org/2000/svg" xmlns:xlink="http://www.w3.org/1999/xlink" version="1.1"><path d="M0 133L82 145L164 127L245 79L327 121L409 157L491 151L573 121L655 67L736 157L818 67L900 145L900 0L818 0L736 0L655 0L573 0L491 0L409 0L327 0L245 0L164 0L82 0L0 0Z" fill="#00cc8e"></path><path d="M0 187L82 181L164 229L245 169L327 223L409 259L491 247L573 169L655 103L736 241L818 145L900 217L900 143L818 65L736 155L655 65L573 119L491 149L409 155L327 119L245 77L164 125L82 143L0 131Z" fill="#00b98a"></path><path d="M0 397L82 409L164 385L245 313L327 373L409 475L491 373L573 283L655 325L736 439L818 379L900 367L900 215L818 143L736 239L655 101L573 167L491 245L409 257L327 221L245 167L164 227L82 179L0 185Z" fill="#00a784"></path><path d="M0 439L82 517L164 487L245 427L327 415L409 535L491 445L573 403L655 385L736 523L818 427L900 451L900 365L818 377L736 437L655 323L573 281L491 371L409 473L327 371L245 311L164 383L82 407L0 395Z" fill="#00957c"></path><path d="M0 601L82 601L164 601L245 601L327 601L409 601L491 601L573 601L655 601L736 601L818 601L900 601L900 449L818 425L736 521L655 383L573 401L491 443L409 533L327 413L245 425L164 485L82 515L0 437Z" fill="#038373"></path></svg>