<svg id="visual" viewBox="0 0 900 600" width="900" height="600" xmlns="http://www.w3.org/2000/svg" xmlns:xlink="http://www.w3.org/1999/xlink" version="1.1"><path d="M0 428L25 452.8C50 477.7 100 527.3 150 551.5C200 575.7 250 574.3 300 559.3C350 544.3 400 515.7 450 512.8C500 510 550 533 600 549.3C650 565.7 700 575.3 750 572.5C800 569.7 850 554.3 875 546.7L900 539L900 601L875 601C850 601 800 601 750 601C700 601 650 601 600 601C550 601 500 601 450 601C400 601 350 601 300 601C250 601 200 601 150 601C100 601 50 601 25 601L0 601Z" fill="#0066FF" stroke-linecap="round" stroke-linejoin="miter"></path></svg>