<svg id="visual" viewBox="0 0 900 600" width="900" height="600" xmlns="http://www.w3.org/2000/svg" xmlns:xlink="http://www.w3.org/1999/xlink" version="1.1"><path d="M493 0L473.8 12.5C454.7 25 416.3 50 411.5 75C406.7 100 435.3 125 459.2 150C483 175 502 200 508 225C514 250 507 275 489.3 300C471.7 325 443.3 350 422.7 375C402 400 389 425 386.5 450C384 475 392 500 419.5 525C447 550 494 575 517.5 587.5L541 600L0 600L0 587.5C0 575 0 550 0 525C0 500 0 475 0 450C0 425 0 400 0 375C0 350 0 325 0 300C0 275 0 250 0 225C0 200 0 175 0 150C0 125 0 100 0 75C0 50 0 25 0 12.5L0 0Z" fill="#0066FF" stroke-linecap="round" stroke-linejoin="miter"></path></svg>